<svg width="252" height="360" xmlns="http://www.w3.org/2000/svg" xmlns:xlink="http://www.w3.org/1999/xlink"><rect x="54" y="45" width="108" height="180" stroke="white" fill="white"></rect><line x1="54" y1="46.5" x2="162" y2="46.5" stroke-width="3" stroke="black"></line><line x1="54" y1="90" x2="162" y2="90" stroke-width="3" stroke="black"></line><line x1="54" y1="135" x2="162" y2="135" stroke-width="3" stroke="black"></line><line x1="54" y1="180" x2="162" y2="180" stroke-width="3" stroke="black"></line><line x1="54" y1="223.5" x2="162" y2="223.5" stroke-width="3" stroke="black"></line><line x1="54" y1="45" x2="54" y2="225" stroke-width="3" stroke="black"></line><line x1="90" y1="45" x2="90" y2="225" stroke-width="3" stroke="black"></line><line x1="126" y1="45" x2="126" y2="225" stroke-width="3" stroke="black"></line><line x1="162" y1="45" x2="162" y2="225" stroke-width="3" stroke="black"></line><text x="54" y="252" text-anchor="middle" dominant-baseline="central" fill="black" font-size="18" font-family="sans-serif">G</text><text x="90" y="252" text-anchor="middle" dominant-baseline="central" fill="black" font-size="18" font-family="sans-serif">C</text><text x="126" y="252" text-anchor="middle" dominant-baseline="central" fill="black" font-size="18" font-family="sans-serif">E</text><text x="162" y="252" text-anchor="middle" dominant-baseline="central" fill="black" font-size="18" font-family="sans-serif">A</text><rect x="54" y="40.5" width="108" height="4.5" r="1" stroke="black" fill="black"></rect><circle cx="54" cy="27" r="9" stroke="black" fill="white"></circle><circle cx="90" cy="27" r="9" stroke="black" fill="white"></circle><circle cx="126" cy="27" r="9" stroke="black" fill="white"></circle><circle cx="162" cy="157.5" r="11.25" stroke="black" fill="black"></circle></svg>